            <svg width="1440" height="1024" viewBox="0 0 1440 1024" fill="none" xmlns="http://www.w3.org/2000/svg">
                <g clip-path="url(#clip0_1_3)">
                    <rect width="1440" height="1024" fill="url(#paint0_linear_1_3)"/>
                    <path d="M-32.6644 391.103C-33.1018 373.182 -24.6881 390.629 -31.5 388.5C-31.8044 388.405 -32.1948 389.298 -32.6644 391.103C-32.5881 394.229 -32.2426 398.431 -31.5 404C-26.5 441.5 -35.5294 439.5 -11.5 482.5C12.5294 525.5 21.4027 535.963 55 554C76.3397 565.456 89.5395 568.498 114.5 571.5C142.082 574.817 158.13 569.057 185 562C213.126 554.613 226.995 544.788 254 534C278.749 524.113 292.328 517.756 317.5 509C363.13 493.128 386.807 485.708 437 477C492.215 467.42 525.506 466.221 580.5 477C626.7 486.056 693.5 519 693.5 519L775 557C775 557 882 606.5 905.5 617.5C929 628.5 986.936 653.858 1043.5 667C1103.1 680.848 1127.66 683.087 1181 676C1222.34 670.507 1237.06 661.788 1283.5 646C1410 603 1498.5 308 1498.5 308L1547.5 1066H-107C-107 1066 -44.5382 436.756 -32.6644 391.103Z" fill="url(#paint1_linear_1_3)"/>
                    <path d="M-31.5 388.5C-23.5 391 -36.5 366.5 -31.5 404C-26.5 441.5 -35.5294 439.5 -11.5 482.5C12.5294 525.5 21.4027 535.963 55 554C76.3397 565.456 89.5395 568.498 114.5 571.5C142.082 574.817 158.13 569.057 185 562C213.126 554.613 226.995 544.788 254 534C278.749 524.113 292.328 517.756 317.5 509C363.13 493.128 386.807 485.708 437 477C492.215 467.42 525.506 466.221 580.5 477C626.7 486.056 693.5 519 693.5 519L775 557C775 557 882 606.5 905.5 617.5C929 628.5 986.936 653.858 1043.5 667C1103.1 680.848 1127.66 683.087 1181 676C1222.34 670.507 1237.06 661.788 1283.5 646C1410 603 1498.5 308 1498.5 308L1547.5 1066H-107C-107 1066 -39.5 386 -31.5 388.5Z" stroke="url(#paint2_linear_1_3)"/>
                    <path d="M-32.6644 425.103C-33.1018 407.182 -24.6881 424.629 -31.5 422.5C-31.8044 422.405 -32.1948 423.298 -32.6644 425.103C-32.5881 428.229 -32.2426 432.431 -31.5 438C-26.5 475.5 -20 499 -14 512C-8 525 15.5496 551.187 41.5 567.5C67.5885 583.9 85.3642 590.183 116 593.5C150.758 597.264 174.559 587.371 210 575.5C237.674 566.23 251.003 555.587 278 544.5C298.464 536.096 331 524.5 331 524.5C331 524.5 397.015 499.185 445 492C500.422 483.701 532.006 488.221 587 499C633.2 508.056 717.5 552.5 717.5 552.5L787 583.5C787 583.5 888 630.5 911.5 641.5C935 652.5 992.436 677.858 1049 691C1104.02 703.784 1139.59 705.397 1178.5 699C1206.19 694.448 1231.12 688.951 1286 666.5C1418 612.5 1498.5 342 1498.5 342L1547.5 1100H-107C-107 1100 -44.5382 470.756 -32.6644 425.103Z" fill="white"/>
                    <path d="M-31.5 422.5C-23.5 425 -36.5 400.5 -31.5 438C-26.5 475.5 -20 499 -14 512C-8 525 15.5496 551.187 41.5 567.5C67.5885 583.9 85.3641 590.183 116 593.5C150.758 597.264 174.559 587.371 210 575.5C237.674 566.23 251.003 555.587 278 544.5C298.464 536.096 331 524.5 331 524.5C331 524.5 397.015 499.185 445 492C500.422 483.701 532.006 488.221 587 499C633.2 508.056 717.5 552.5 717.5 552.5L787 583.5C787 583.5 888 630.5 911.5 641.5C935 652.5 992.436 677.858 1049 691C1104.02 703.784 1139.59 705.397 1178.5 699C1206.19 694.448 1231.12 688.951 1286 666.5C1418 612.5 1498.5 342 1498.5 342L1547.5 1100H-107C-107 1100 -39.5 420 -31.5 422.5Z" stroke="url(#paint3_linear_1_3)"/>
                </g>
                <defs>
                    <linearGradient id="paint0_linear_1_3" x1="-175.5" y1="1001" x2="662.5" y2="243.5" gradientUnits="userSpaceOnUse">
                    <stop stop-color="#8F2CC8"/>
                    <stop offset="1" stop-color="#395AC8"/>
                    </linearGradient>
                    <linearGradient id="paint1_linear_1_3" x1="1832" y1="338.5" x2="-496" y2="664.5" gradientUnits="userSpaceOnUse">
                    <stop stop-color="#D8EEF3"/>
                    <stop offset="1" stop-color="#E1D2F3"/>
                    </linearGradient>
                    <linearGradient id="paint2_linear_1_3" x1="84.5" y1="602.5" x2="1211.5" y2="649" gradientUnits="userSpaceOnUse">
                    <stop stop-color="#8E2CC8"/>
                    <stop offset="1" stop-color="#395AC8"/>
                    </linearGradient>
                    <linearGradient id="paint3_linear_1_3" x1="42" y1="633.5" x2="1215.5" y2="635.5" gradientUnits="userSpaceOnUse">
                    <stop stop-color="#DFD8F3"/>
                    <stop offset="1" stop-color="#DAE8F3"/>
                    </linearGradient>
                    <clipPath id="clip0_1_3">
                    <rect width="1440" height="1024" fill="white"/>
                    </clipPath>
                </defs>
            </svg>