<svg width="727" height="658" viewBox="0 0 727 658" fill="#2c65c8" xmlns="http://www.w3.org/2000/svg">
<path fill-rule="evenodd" clip-rule="evenodd" d="M0.702487 76.206C-6.69985 24.3886 45.7658 -15.3567 93.6435 5.79864L686.339 267.686C739.302 291.09 739.302 366.243 686.339 389.646L93.6435 651.533C45.7658 672.69 -6.69985 632.943 0.702487 581.126L24.9032 411.723C27.2032 395.623 39.0218 382.52 54.7995 378.573L254.432 328.666L54.7995 278.76C39.0218 274.813 27.2032 261.709 24.9032 245.609L0.702487 76.206ZM659.392 328.666L66.6992 66.778L88.3638 218.431L387.019 293.093C424.049 302.353 424.049 354.98 387.019 364.24L88.3638 438.903L66.6992 590.553L659.392 328.666Z" fill="#2c65c8"/>
<path d="M60 51.5L654.5 327.5V359L45.5 626.5V447L159.5 399L256 376L304.5 359L344.5 345V327.5L77 234L60 51.5Z" fill="#2c65c8"/>
<path d="M654.5 327.5H415.5H344.5M654.5 327.5L60 51.5L77 234L344.5 327.5M654.5 327.5V359L45.5 626.5V447L159.5 399L256 376L304.5 359L344.5 345V327.5" stroke="#2c65c8"/>
</svg>
